<?xml version="1.0" standalone="no"?>
<!DOCTYPE svg PUBLIC "-//W3C//DTD SVG 20010904//EN"
 "http://www.w3.org/TR/2001/REC-SVG-20010904/DTD/svg10.dtd">
<svg version="1.0" xmlns="http://www.w3.org/2000/svg"
 width="512.000000pt" height="512.000000pt" viewBox="0 0 512.000000 512.000000"
 preserveAspectRatio="xMidYMid meet">
<metadata>
Created by potrace 1.14, written by Peter Selinger 2001-2017
</metadata>
<g transform="translate(0.000000,512.000000) scale(0.100000,-0.100000)"
fill="#000000" stroke="none">
<path d="M0 2560 l0 -2560 2560 0 2560 0 0 2560 0 2560 -2560 0 -2560 0 0
-2560z m2815 1391 c201 -41 353 -128 527 -299 114 -113 174 -188 232 -292 20
-36 36 -59 36 -52 0 22 99 14 156 -12 148 -69 187 -310 94 -579 -31 -89 -18
-79 19 15 110 281 70 538 -95 618 -45 22 -110 24 -170 5 -17 -5 -26 3 -53 46
-25 41 -29 54 -19 61 7 5 58 7 114 5 87 -3 110 -8 165 -34 81 -38 129 -82 173
-157 94 -157 82 -386 -30 -613 -45 -92 -138 -233 -152 -233 -5 0 -14 24 -21
53 -8 28 -34 115 -58 191 -45 140 -49 164 -57 336 -4 83 -32 237 -42 227 -2
-2 3 -34 10 -71 15 -72 13 -151 -6 -254 -9 -50 -9 -68 0 -83 7 -11 10 -24 7
-29 -4 -6 -4 -10 0 -10 3 0 9 10 14 23 8 19 10 16 24 -28 9 -27 25 -77 38
-110 82 -225 79 -434 -10 -647 -18 -42 -39 -82 -47 -89 -8 -6 -14 -15 -14 -20
0 -5 -8 -17 -17 -27 -10 -10 -30 -32 -44 -48 -35 -39 -138 -129 -186 -161 -21
-14 -40 -29 -43 -33 -3 -4 -27 -20 -55 -35 -27 -16 -52 -32 -55 -36 -3 -3 -31
-20 -63 -36 -39 -19 -70 -45 -95 -78 -32 -43 -49 -54 -112 -79 -41 -16 -131
-53 -200 -84 -115 -51 -132 -55 -215 -60 -112 -5 -165 12 -303 96 -53 33 -125
74 -160 92 -49 26 -69 44 -90 79 -30 53 -51 73 -109 108 -24 14 -43 29 -43 33
0 5 -9 12 -21 15 -12 4 -44 28 -73 54 -28 26 -61 53 -72 61 -11 8 -27 24 -35
36 -13 19 -50 65 -121 149 -16 18 -28 37 -28 43 0 5 -6 15 -14 21 -8 6 -24 40
-36 74 -12 34 -24 69 -27 77 -7 19 -8 26 -22 125 -7 44 -11 120 -10 169 2 83
6 113 23 176 4 14 -4 5 -17 -19 l-24 -44 -51 104 c-108 220 -143 404 -107 574
40 187 167 317 335 344 61 10 96 8 226 -14 40 -7 43 -5 135 72 207 173 399
269 594 296 79 11 217 5 300 -12z"/>
<path d="M1503 3495 c-116 -59 -173 -181 -173 -370 0 -100 16 -197 46 -288 24
-73 25 -52 2 48 -26 118 -28 277 -4 360 24 82 76 158 129 189 51 30 149 44
196 28 25 -9 31 -8 31 3 0 25 -48 47 -113 52 -53 4 -70 1 -114 -22z"/>
<path d="M1626 3253 c-3 -10 -17 -73 -31 -141 -14 -67 -28 -130 -31 -140 -4
-12 -2 -12 7 3 7 11 20 27 30 35 13 12 19 37 22 110 3 52 8 107 11 123 7 30 1
37 -8 10z"/>
<path d="M3500 3101 c0 -6 4 -13 10 -16 6 -3 7 1 4 9 -7 18 -14 21 -14 7z"/>
<path d="M1501 2843 c-10 -26 -10 -27 4 -9 8 11 15 23 15 28 0 15 -7 8 -19
-19z"/>
<path d="M2125 2795 c-35 -18 -71 -67 -92 -127 -17 -48 -29 -227 -16 -243 10
-13 177 -85 197 -85 26 0 64 58 76 116 29 141 -4 290 -74 334 -39 24 -51 24
-91 5z m70 -87 c27 -12 45 -56 27 -67 -5 -3 -33 -4 -61 -3 -46 4 -51 6 -51 27
0 13 10 31 22 39 27 19 30 19 63 4z"/>
<path d="M1462 2765 c-17 -37 -14 -45 4 -12 9 16 14 31 11 33 -2 2 -9 -7 -15
-21z"/>
<path d="M3009 2720 c-46 -38 -74 -104 -89 -208 -14 -108 -5 -168 31 -204 31
-32 74 -35 164 -14 67 15 77 39 83 184 5 133 -7 189 -53 238 -42 45 -86 46
-136 4z m101 -90 c11 -11 20 -29 20 -40 0 -16 -7 -20 -37 -20 -80 0 -103 22
-66 62 21 24 58 23 83 -2z"/>
<path d="M2478 2209 c-23 -13 -23 -62 -2 -84 9 -9 28 -15 43 -13 21 2 27 9 29
35 2 22 -3 38 -17 52 -24 24 -29 25 -53 10z"/>
<path d="M2667 2209 c-49 -28 -39 -99 13 -99 46 0 68 61 34 94 -18 19 -23 19
-47 5z"/>
<path d="M2215 1866 c-17 -12 -17 -18 -6 -77 16 -80 46 -160 72 -193 26 -32
93 -68 121 -64 20 3 20 4 -3 32 -31 39 -32 55 -6 77 27 23 53 24 61 4 3 -9 19
-21 36 -26 16 -6 30 -15 30 -20 0 -15 31 -10 77 12 78 38 132 -7 78 -65 -25
-27 -23 -36 9 -36 40 1 105 38 128 74 29 46 52 56 46 21 -3 -14 -4 -25 -2 -25
11 0 60 93 81 153 36 104 33 110 -57 120 -51 6 -90 5 -121 -3 -35 -8 -58 -8
-88 0 -23 6 -95 12 -162 13 -66 1 -123 5 -125 9 -9 14 -149 9 -169 -6z"/>
</g>
</svg>
