<svg xmlns="http://www.w3.org/2000/svg" width="23.484" height="25" viewBox="0 0 23.484 25">
  <path id="logout-svgrepo-com" d="M15.356,13.286a1.136,1.136,0,0,0,2.273,0Zm2.273-8.9a1.136,1.136,0,1,0-2.273,0ZM12.418,8.419a1.136,1.136,0,1,0-.942-2.068ZM5.886,16.75,4.75,16.744v.019ZM16.492,27.113l.013-1.136h-.026ZM27.1,16.75l1.136.013v-.019Zm-5.59-10.4a1.136,1.136,0,1,0-.942,2.068Zm-3.88,6.935v-8.9H15.356v8.9ZM11.476,6.351A11.486,11.486,0,0,0,4.75,16.744l2.273.012a9.213,9.213,0,0,1,5.4-8.337ZM4.75,16.763A11.622,11.622,0,0,0,16.505,28.249l-.026-2.273a9.35,9.35,0,0,1-9.456-9.24ZM16.479,28.249A11.622,11.622,0,0,0,28.234,16.763l-2.272-.026a9.35,9.35,0,0,1-9.457,9.24ZM28.234,16.744A11.486,11.486,0,0,0,21.508,6.351l-.942,2.068a9.213,9.213,0,0,1,5.395,8.337Z" transform="translate(-4.75 -3.25)"/>
</svg>
